<?xml version="1.0" encoding="UTF-8"?><svg xmlns="http://www.w3.org/2000/svg" xmlns:xlink="http://www.w3.org/1999/xlink" contentScriptType="text/ecmascript" width="199.5" zoomAndPan="magnify" contentStyleType="text/css" viewBox="0 0 199.5 82.499998" height="82.499998" preserveAspectRatio="xMidYMid meet" version="1.0"><defs><clipPath id="clip-0"><path d="M 0.351562 0 L 198.652344 0 L 198.652344 82.003906 L 0.351562 82.003906 Z M 0.351562 0 " clip-rule="nonzero"/></clipPath><clipPath id="clip-1"><path d="M 0.351562 0 L 196 0 L 196 82.003906 L 0.351562 82.003906 Z M 0.351562 0 " clip-rule="nonzero"/></clipPath><clipPath id="clip-2"><path d="M 0.351562 0 L 198.652344 0 L 198.652344 82.003906 L 0.351562 82.003906 Z M 0.351562 0 " clip-rule="nonzero"/></clipPath><clipPath id="clip-3"><path d="M 0.351562 19 L 182 19 L 182 82.003906 L 0.351562 82.003906 Z M 0.351562 19 " clip-rule="nonzero"/></clipPath></defs><g clip-path="url(#clip-0)"><path fill="rgb(100%, 100%, 100%)" d="M 0.351562 0 L 199.148438 0 L 199.148438 88.933594 L 0.351562 88.933594 Z M 0.351562 0 " fill-opacity="1" fill-rule="nonzero"/><path fill="rgb(100%, 100%, 100%)" d="M 0.351562 0 L 199.148438 0 L 199.148438 82.207031 L 0.351562 82.207031 Z M 0.351562 0 " fill-opacity="1" fill-rule="nonzero"/><path fill="rgb(100%, 100%, 100%)" d="M 0.351562 0 L 199.148438 0 L 199.148438 82.207031 L 0.351562 82.207031 Z M 0.351562 0 " fill-opacity="1" fill-rule="nonzero"/></g><g clip-path="url(#clip-1)"><path fill="rgb(0%, 29.019165%, 67.83905%)" d="M -1082.128906 -41.390625 L 195.058594 -41.390625 L 195.058594 -18.96875 L -1063.019531 -18.96875 L -1063.019531 738.589844 L -1082.128906 738.589844 Z M -1082.128906 -41.390625 " fill-opacity="1" fill-rule="evenodd"/></g><g clip-path="url(#clip-2)"><path fill="rgb(45.098877%, 45.098877%, 45.098877%)" d="M 214.164062 -0.589844 L 234.007812 -0.589844 L 234.007812 779.390625 L -1043.179688 779.390625 L -1043.179688 761.011719 L 214.164062 761.011719 Z M 214.164062 -0.589844 " fill-opacity="1" fill-rule="evenodd"/><path fill="rgb(32.939148%, 32.939148%, 32.939148%)" d="M -1063.019531 -18.96875 L 214.164062 -18.96875 L 214.164062 761.011719 L -1063.019531 761.011719 C -1063.019531 761.011719 -1063.019531 -18.96875 -1063.019531 -18.96875 Z M -989.535156 97.183594 L -469.621094 97.183594 L -469.621094 645.230469 L -989.535156 645.230469 Z M -989.535156 97.183594 " fill-opacity="1" fill-rule="evenodd"/><path fill="rgb(11.369324%, 15.289307%, 16.468811%)" d="M -1082.128906 -44.332031 L 195.058594 -44.332031 C 196.527344 -44.332031 198 -43.230469 198 -41.390625 L 198 -18.96875 L 192.488281 -18.96875 L 192.488281 -38.820312 L -1079.1875 -38.820312 L -1079.1875 735.652344 L -1063.019531 735.652344 L -1063.019531 741.164062 L -1082.128906 741.164062 C -1083.597656 741.164062 -1085.066406 740.0625 -1085.066406 738.222656 L -1085.066406 -41.390625 C -1085.066406 -42.863281 -1083.597656 -44.332031 -1082.128906 -44.332031 Z M 214.164062 -3.164062 L 234.007812 -3.164062 C 235.476562 -3.164062 236.945312 -2.0625 236.945312 -0.222656 L 236.945312 779.757812 C 236.945312 781.230469 235.84375 782.699219 234.007812 782.699219 L -1043.179688 782.699219 C -1044.648438 782.699219 -1046.121094 781.597656 -1046.121094 779.757812 L -1046.121094 761.378906 L -1040.609375 761.378906 L -1040.609375 777.1875 L 231.066406 777.1875 L 231.066406 2.347656 L 214.164062 2.347656 Z M -1063.019531 -21.910156 L 214.164062 -21.910156 C 215.636719 -21.910156 217.105469 -20.808594 217.105469 -18.96875 L 217.105469 761.011719 C 217.105469 762.484375 216.003906 763.953125 214.164062 763.953125 L -1063.019531 763.953125 C -1064.492188 763.953125 -1065.960938 762.851562 -1065.960938 761.011719 L -1065.960938 -18.96875 C -1065.960938 -20.441406 -1064.492188 -21.910156 -1063.019531 -21.910156 Z M 211.226562 -16.03125 L -1060.449219 -16.03125 L -1060.449219 758.441406 L 211.226562 758.441406 Z M 211.226562 -16.03125 " fill-opacity="1" fill-rule="nonzero"/></g><g clip-path="url(#clip-3)"><path fill="rgb(11.369324%, 15.289307%, 16.468811%)" d="M 179.996094 24.035156 C 181.097656 22.933594 181.097656 21.09375 179.996094 19.992188 C 178.890625 18.890625 177.054688 18.890625 175.953125 19.992188 L 151.703125 44.253906 C 150.601562 45.355469 150.601562 47.191406 151.703125 48.296875 C 152.804688 49.398438 154.640625 49.398438 155.746094 48.296875 Z M 156.113281 19.992188 C 155.007812 18.890625 153.171875 18.890625 152.070312 19.992188 C 150.96875 21.09375 150.96875 22.933594 152.070312 24.035156 L 176.320312 48.296875 C 177.421875 49.398438 179.261719 49.398438 180.363281 48.296875 C 181.464844 47.191406 181.464844 45.355469 180.363281 44.253906 Z M 121.574219 21.09375 L 97.324219 21.09375 C 95.851562 21.09375 94.382812 22.199219 94.382812 24.035156 L 94.382812 48.296875 C 94.382812 49.765625 95.484375 51.234375 97.324219 51.234375 L 121.574219 51.234375 C 123.042969 51.234375 124.511719 50.132812 124.511719 48.296875 L 124.511719 24.035156 C 124.511719 22.566406 123.042969 21.09375 121.574219 21.09375 Z M 100.261719 26.976562 L 118.632812 26.976562 L 118.632812 45.355469 L 100.261719 45.355469 Z M 37.0625 45.355469 C 35.59375 45.355469 34.125 46.457031 34.125 48.296875 C 34.125 49.765625 35.226562 51.234375 37.0625 51.234375 L 71.234375 51.234375 C 72.703125 51.234375 74.175781 50.132812 74.175781 48.296875 C 74.175781 46.824219 73.074219 45.355469 71.234375 45.355469 Z M -989.535156 94.242188 L -469.621094 94.242188 C -468.152344 94.242188 -466.683594 95.34375 -466.683594 97.183594 L -466.683594 645.230469 C -466.683594 646.699219 -467.785156 648.167969 -469.621094 648.167969 L -989.535156 648.167969 C -991.003906 648.167969 -992.476562 647.066406 -992.476562 645.230469 L -992.476562 97.183594 C -992.105469 95.34375 -991.003906 94.242188 -989.535156 94.242188 Z M -472.5625 99.753906 L -986.964844 99.753906 L -986.964844 642.289062 L -472.5625 642.289062 Z M -472.5625 99.753906 " fill-opacity="1" fill-rule="nonzero"/></g></svg>