<?xml version="1.0" encoding="UTF-8"?><svg xmlns="http://www.w3.org/2000/svg" xmlns:xlink="http://www.w3.org/1999/xlink" contentScriptType="text/ecmascript" width="72" zoomAndPan="magnify" contentStyleType="text/css" viewBox="0 0 72 72" height="72" preserveAspectRatio="xMidYMid meet" version="1.0"><defs><clipPath id="clip-0"><path d="M 50 63 L 58 63 L 58 67.589844 L 50 67.589844 Z M 50 63 " clip-rule="nonzero"/></clipPath><clipPath id="clip-1"><path d="M 7 63 L 15 63 L 15 67.589844 L 7 67.589844 Z M 7 63 " clip-rule="nonzero"/></clipPath><clipPath id="clip-2"><path d="M 7 4.589844 L 12 4.589844 L 12 9 L 7 9 Z M 7 4.589844 " clip-rule="nonzero"/></clipPath></defs><path fill="rgb(88.62915%, 69.799805%, 6.669617%)" d="M 68.296875 49.578125 L 71.886719 49.578125 L 71.886719 45.980469 L 68.296875 45.980469 L 68.296875 49.578125 " fill-opacity="1" fill-rule="nonzero"/><path fill="rgb(88.62915%, 80.778503%, 5.099487%)" d="M 64.707031 53.175781 L 68.296875 53.175781 L 68.296875 49.578125 L 64.707031 49.578125 L 64.707031 53.175781 " fill-opacity="1" fill-rule="nonzero"/><path fill="rgb(89.408875%, 57.649231%, 8.239746%)" d="M 64.707031 45.980469 L 64.707031 49.578125 L 68.296875 49.578125 L 68.296875 45.980469 L 64.707031 45.980469 " fill-opacity="1" fill-rule="nonzero"/><path fill="rgb(88.62915%, 80.778503%, 5.099487%)" d="M 68.296875 42.378906 L 64.707031 42.378906 L 64.707031 45.980469 L 68.296875 45.980469 L 68.296875 42.378906 " fill-opacity="1" fill-rule="nonzero"/><path fill="rgb(88.62915%, 69.799805%, 6.669617%)" d="M 61.121094 45.980469 L 61.121094 49.578125 L 64.707031 49.578125 L 64.707031 45.980469 L 61.121094 45.980469 " fill-opacity="1" fill-rule="nonzero"/><path fill="rgb(13.729858%, 12.159729%, 12.548828%)" d="M 61.121094 31.582031 L 64.707031 31.582031 L 64.707031 27.980469 L 61.121094 27.980469 L 61.121094 31.582031 " fill-opacity="1" fill-rule="nonzero"/><path fill="rgb(13.729858%, 12.159729%, 12.548828%)" d="M 61.121094 63.976562 L 61.121094 60.378906 L 57.53125 60.378906 L 57.53125 63.976562 L 61.121094 63.976562 " fill-opacity="1" fill-rule="nonzero"/><path fill="rgb(13.729858%, 12.159729%, 12.548828%)" d="M 57.53125 35.179688 L 61.121094 35.179688 L 61.121094 31.582031 L 57.53125 31.582031 L 57.53125 35.179688 " fill-opacity="1" fill-rule="nonzero"/><path fill="rgb(74.899292%, 50.19989%, 10.978699%)" d="M 57.53125 27.980469 L 57.53125 31.582031 L 61.121094 31.582031 L 61.121094 27.980469 L 57.53125 27.980469 " fill-opacity="1" fill-rule="nonzero"/><path fill="rgb(13.729858%, 12.159729%, 12.548828%)" d="M 53.941406 60.378906 L 57.53125 60.378906 L 57.53125 53.175781 L 53.941406 53.175781 L 53.941406 60.378906 " fill-opacity="1" fill-rule="nonzero"/><path fill="rgb(13.729858%, 12.159729%, 12.548828%)" d="M 53.941406 38.777344 L 57.53125 38.777344 L 57.53125 35.179688 L 53.941406 35.179688 L 53.941406 38.777344 " fill-opacity="1" fill-rule="nonzero"/><path fill="rgb(74.899292%, 50.19989%, 10.978699%)" d="M 53.941406 31.582031 L 53.941406 35.179688 L 57.53125 35.179688 L 57.53125 31.582031 L 53.941406 31.582031 " fill-opacity="1" fill-rule="nonzero"/><g clip-path="url(#clip-0)"><path fill="rgb(13.729858%, 12.159729%, 12.548828%)" d="M 50.351562 63.976562 L 50.351562 67.574219 L 57.53125 67.574219 L 57.53125 63.976562 L 50.351562 63.976562 " fill-opacity="1" fill-rule="nonzero"/></g><path fill="rgb(74.899292%, 50.19989%, 10.978699%)" d="M 50.351562 60.378906 L 50.351562 63.976562 L 57.53125 63.976562 L 57.53125 60.378906 L 50.351562 60.378906 " fill-opacity="1" fill-rule="nonzero"/><path fill="rgb(13.729858%, 12.159729%, 12.548828%)" d="M 50.351562 53.175781 L 53.941406 53.175781 L 53.941406 45.980469 L 50.351562 45.980469 L 50.351562 53.175781 " fill-opacity="1" fill-rule="nonzero"/><path fill="rgb(13.729858%, 12.159729%, 12.548828%)" d="M 50.351562 42.378906 L 53.941406 42.378906 L 53.941406 38.777344 L 50.351562 38.777344 L 50.351562 42.378906 " fill-opacity="1" fill-rule="nonzero"/><path fill="rgb(74.899292%, 50.19989%, 10.978699%)" d="M 50.351562 35.179688 L 50.351562 38.777344 L 53.941406 38.777344 L 53.941406 35.179688 L 50.351562 35.179688 " fill-opacity="1" fill-rule="nonzero"/><path fill="rgb(13.729858%, 12.159729%, 12.548828%)" d="M 50.351562 60.378906 L 43.175781 60.378906 L 43.175781 63.976562 L 50.351562 63.976562 L 50.351562 60.378906 " fill-opacity="1" fill-rule="nonzero"/><path fill="rgb(74.899292%, 50.19989%, 10.978699%)" d="M 50.351562 60.378906 L 50.351562 56.777344 L 43.175781 56.777344 L 43.175781 60.378906 L 50.351562 60.378906 " fill-opacity="1" fill-rule="nonzero"/><path fill="rgb(88.62915%, 80.778503%, 5.099487%)" d="M 32.410156 31.582031 L 32.410156 27.980469 L 35.996094 27.980469 L 35.996094 31.582031 L 39.585938 31.582031 L 39.585938 35.179688 L 35.996094 35.179688 L 35.996094 38.777344 L 32.410156 38.777344 L 32.410156 35.179688 L 28.820312 35.179688 L 28.820312 31.582031 Z M 46.765625 53.175781 L 46.765625 45.980469 L 43.175781 45.980469 L 43.175781 42.378906 L 46.765625 42.378906 L 46.765625 38.777344 L 50.351562 38.777344 L 50.351562 35.179688 L 53.941406 35.179688 L 53.941406 31.582031 L 57.53125 31.582031 L 57.53125 27.980469 L 39.585938 27.980469 L 39.585938 24.382812 L 35.996094 24.382812 L 35.996094 13.582031 L 32.410156 13.582031 L 32.410156 17.183594 L 28.820312 17.183594 L 28.820312 24.382812 L 25.230469 24.382812 L 25.230469 31.582031 L 10.875 31.582031 L 10.875 35.179688 L 14.464844 35.179688 L 14.464844 38.777344 L 18.054688 38.777344 L 18.054688 42.378906 L 21.640625 42.378906 L 21.640625 49.578125 L 18.054688 49.578125 L 18.054688 53.175781 L 14.464844 53.175781 L 14.464844 56.777344 L 25.230469 56.777344 L 25.230469 53.175781 L 28.820312 53.175781 L 28.820312 49.578125 L 35.996094 49.578125 L 35.996094 53.175781 L 43.175781 53.175781 L 43.175781 56.777344 L 50.351562 56.777344 L 50.351562 60.378906 L 53.941406 60.378906 L 53.941406 53.175781 L 46.765625 53.175781 " fill-opacity="1" fill-rule="nonzero"/><path fill="rgb(74.899292%, 50.19989%, 10.978699%)" d="M 46.765625 49.578125 L 46.765625 53.175781 L 50.351562 53.175781 L 50.351562 45.980469 L 46.765625 45.980469 L 46.765625 49.578125 " fill-opacity="1" fill-rule="nonzero"/><path fill="rgb(13.729858%, 12.159729%, 12.548828%)" d="M 46.765625 45.980469 L 50.351562 45.980469 L 50.351562 42.378906 L 46.765625 42.378906 L 46.765625 45.980469 " fill-opacity="1" fill-rule="nonzero"/><path fill="rgb(74.899292%, 50.19989%, 10.978699%)" d="M 46.765625 38.777344 L 46.765625 42.378906 L 50.351562 42.378906 L 50.351562 38.777344 L 46.765625 38.777344 " fill-opacity="1" fill-rule="nonzero"/><path fill="rgb(74.899292%, 50.19989%, 10.978699%)" d="M 43.175781 45.980469 L 46.765625 45.980469 L 46.765625 42.378906 L 43.175781 42.378906 L 43.175781 45.980469 " fill-opacity="1" fill-rule="nonzero"/><path fill="rgb(13.729858%, 12.159729%, 12.548828%)" d="M 46.765625 27.980469 L 61.121094 27.980469 L 61.121094 24.382812 L 43.175781 24.382812 L 43.175781 27.980469 L 46.765625 27.980469 " fill-opacity="1" fill-rule="nonzero"/><path fill="rgb(13.729858%, 12.159729%, 12.548828%)" d="M 39.585938 56.777344 L 35.996094 56.777344 L 35.996094 60.378906 L 43.175781 60.378906 L 43.175781 56.777344 L 39.585938 56.777344 " fill-opacity="1" fill-rule="nonzero"/><path fill="rgb(89.408875%, 57.649231%, 8.239746%)" d="M 43.175781 56.777344 L 43.175781 53.175781 L 35.996094 53.175781 L 35.996094 56.777344 L 43.175781 56.777344 " fill-opacity="1" fill-rule="nonzero"/><path fill="rgb(89.408875%, 57.649231%, 8.239746%)" d="M 39.585938 27.980469 L 43.175781 27.980469 L 43.175781 24.382812 L 39.585938 24.382812 L 39.585938 27.980469 " fill-opacity="1" fill-rule="nonzero"/><path fill="rgb(13.729858%, 12.159729%, 12.548828%)" d="M 39.585938 24.382812 L 43.175781 24.382812 L 43.175781 17.183594 L 39.585938 17.183594 L 39.585938 24.382812 " fill-opacity="1" fill-rule="nonzero"/><path fill="rgb(89.408875%, 57.649231%, 8.239746%)" d="M 39.585938 35.179688 L 39.585938 31.582031 L 35.996094 31.582031 L 35.996094 35.179688 L 39.585938 35.179688 " fill-opacity="1" fill-rule="nonzero"/><path fill="rgb(89.408875%, 57.649231%, 8.239746%)" d="M 35.996094 20.78125 L 35.996094 24.382812 L 39.585938 24.382812 L 39.585938 17.183594 L 35.996094 17.183594 L 35.996094 20.78125 " fill-opacity="1" fill-rule="nonzero"/><path fill="rgb(13.729858%, 12.159729%, 12.548828%)" d="M 35.996094 17.183594 L 39.585938 17.183594 L 39.585938 9.980469 L 35.996094 9.980469 L 35.996094 17.183594 " fill-opacity="1" fill-rule="nonzero"/><path fill="rgb(13.729858%, 12.159729%, 12.548828%)" d="M 32.410156 53.175781 L 28.820312 53.175781 L 28.820312 56.777344 L 35.996094 56.777344 L 35.996094 53.175781 L 32.410156 53.175781 " fill-opacity="1" fill-rule="nonzero"/><path fill="rgb(89.408875%, 57.649231%, 8.239746%)" d="M 35.996094 53.175781 L 35.996094 49.578125 L 28.820312 49.578125 L 28.820312 53.175781 L 35.996094 53.175781 " fill-opacity="1" fill-rule="nonzero"/><path fill="rgb(89.408875%, 57.649231%, 8.239746%)" d="M 32.410156 38.777344 L 35.996094 38.777344 L 35.996094 35.179688 L 32.410156 35.179688 L 32.410156 38.777344 " fill-opacity="1" fill-rule="nonzero"/><path fill="rgb(88.62915%, 69.799805%, 6.669617%)" d="M 35.996094 35.179688 L 35.996094 31.582031 L 32.410156 31.582031 L 32.410156 35.179688 L 35.996094 35.179688 " fill-opacity="1" fill-rule="nonzero"/><path fill="rgb(89.408875%, 57.649231%, 8.239746%)" d="M 35.996094 27.980469 L 32.410156 27.980469 L 32.410156 31.582031 L 35.996094 31.582031 L 35.996094 27.980469 " fill-opacity="1" fill-rule="nonzero"/><path fill="rgb(13.729858%, 12.159729%, 12.548828%)" d="M 35.996094 9.980469 L 35.996094 6.382812 L 28.820312 6.382812 L 28.820312 9.980469 L 35.996094 9.980469 " fill-opacity="1" fill-rule="nonzero"/><path fill="rgb(89.408875%, 57.649231%, 8.239746%)" d="M 32.410156 35.179688 L 32.410156 31.582031 L 28.820312 31.582031 L 28.820312 35.179688 L 32.410156 35.179688 " fill-opacity="1" fill-rule="nonzero"/><path fill="rgb(100%, 100%, 100%)" d="M 28.820312 17.183594 L 32.410156 17.183594 L 32.410156 13.582031 L 35.996094 13.582031 L 35.996094 9.980469 L 28.820312 9.980469 L 28.820312 17.183594 " fill-opacity="1" fill-rule="nonzero"/><path fill="rgb(89.408875%, 57.649231%, 8.239746%)" d="M 25.230469 53.175781 L 25.230469 56.777344 L 28.820312 56.777344 L 28.820312 53.175781 L 25.230469 53.175781 " fill-opacity="1" fill-rule="nonzero"/><path fill="rgb(100%, 100%, 100%)" d="M 25.230469 24.382812 L 28.820312 24.382812 L 28.820312 17.183594 L 25.230469 17.183594 L 25.230469 24.382812 " fill-opacity="1" fill-rule="nonzero"/><path fill="rgb(13.729858%, 12.159729%, 12.548828%)" d="M 28.820312 13.582031 L 28.820312 9.980469 L 25.230469 9.980469 L 25.230469 17.183594 L 28.820312 17.183594 L 28.820312 13.582031 " fill-opacity="1" fill-rule="nonzero"/><path fill="rgb(13.729858%, 12.159729%, 12.548828%)" d="M 21.640625 56.777344 L 21.640625 60.378906 L 28.820312 60.378906 L 28.820312 56.777344 L 21.640625 56.777344 " fill-opacity="1" fill-rule="nonzero"/><path fill="rgb(13.729858%, 12.159729%, 12.548828%)" d="M 25.230469 20.78125 L 25.230469 17.183594 L 21.640625 17.183594 L 21.640625 24.382812 L 25.230469 24.382812 L 25.230469 20.78125 " fill-opacity="1" fill-rule="nonzero"/><path fill="rgb(89.408875%, 57.649231%, 8.239746%)" d="M 18.054688 56.777344 L 14.464844 56.777344 L 14.464844 60.378906 L 21.640625 60.378906 L 21.640625 56.777344 L 18.054688 56.777344 " fill-opacity="1" fill-rule="nonzero"/><path fill="rgb(13.729858%, 12.159729%, 12.548828%)" d="M 14.464844 60.378906 L 14.464844 63.976562 L 21.640625 63.976562 L 21.640625 60.378906 L 14.464844 60.378906 " fill-opacity="1" fill-rule="nonzero"/><path fill="rgb(88.62915%, 69.799805%, 6.669617%)" d="M 14.464844 53.175781 L 18.054688 53.175781 L 18.054688 49.578125 L 21.640625 49.578125 L 21.640625 42.378906 L 18.054688 42.378906 L 18.054688 45.980469 L 14.464844 45.980469 L 14.464844 53.175781 " fill-opacity="1" fill-rule="nonzero"/><path fill="rgb(13.729858%, 12.159729%, 12.548828%)" d="M 18.054688 42.378906 L 14.464844 42.378906 L 14.464844 45.980469 L 18.054688 45.980469 L 18.054688 42.378906 " fill-opacity="1" fill-rule="nonzero"/><path fill="rgb(100%, 100%, 100%)" d="M 18.054688 38.777344 L 14.464844 38.777344 L 14.464844 42.378906 L 18.054688 42.378906 L 18.054688 38.777344 " fill-opacity="1" fill-rule="nonzero"/><path fill="rgb(89.408875%, 57.649231%, 8.239746%)" d="M 10.875 60.378906 L 7.285156 60.378906 L 7.285156 63.976562 L 14.464844 63.976562 L 14.464844 60.378906 L 10.875 60.378906 " fill-opacity="1" fill-rule="nonzero"/><path fill="rgb(88.62915%, 69.799805%, 6.669617%)" d="M 10.875 60.378906 L 14.464844 60.378906 L 14.464844 53.175781 L 10.875 53.175781 L 10.875 60.378906 " fill-opacity="1" fill-rule="nonzero"/><path fill="rgb(13.729858%, 12.159729%, 12.548828%)" d="M 14.464844 49.578125 L 14.464844 45.980469 L 10.875 45.980469 L 10.875 53.175781 L 14.464844 53.175781 L 14.464844 49.578125 " fill-opacity="1" fill-rule="nonzero"/><path fill="rgb(13.729858%, 12.159729%, 12.548828%)" d="M 10.875 38.777344 L 10.875 42.378906 L 14.464844 42.378906 L 14.464844 38.777344 L 10.875 38.777344 " fill-opacity="1" fill-rule="nonzero"/><path fill="rgb(100%, 100%, 100%)" d="M 14.464844 35.179688 L 10.875 35.179688 L 10.875 38.777344 L 14.464844 38.777344 L 14.464844 35.179688 " fill-opacity="1" fill-rule="nonzero"/><g clip-path="url(#clip-1)"><path fill="rgb(13.729858%, 12.159729%, 12.548828%)" d="M 7.285156 63.976562 L 7.285156 67.574219 L 14.464844 67.574219 L 14.464844 63.976562 L 7.285156 63.976562 " fill-opacity="1" fill-rule="nonzero"/></g><path fill="rgb(13.729858%, 12.159729%, 12.548828%)" d="M 10.875 56.777344 L 10.875 53.175781 L 7.285156 53.175781 L 7.285156 60.378906 L 10.875 60.378906 L 10.875 56.777344 " fill-opacity="1" fill-rule="nonzero"/><path fill="rgb(13.729858%, 12.159729%, 12.548828%)" d="M 7.285156 35.179688 L 7.285156 38.777344 L 10.875 38.777344 L 10.875 35.179688 L 7.285156 35.179688 " fill-opacity="1" fill-rule="nonzero"/><path fill="rgb(100%, 100%, 100%)" d="M 10.875 31.582031 L 25.230469 31.582031 L 25.230469 24.382812 L 21.640625 24.382812 L 21.640625 27.980469 L 3.699219 27.980469 L 3.699219 31.582031 L 7.285156 31.582031 L 7.285156 35.179688 L 10.875 35.179688 L 10.875 31.582031 " fill-opacity="1" fill-rule="nonzero"/><path fill="rgb(13.729858%, 12.159729%, 12.548828%)" d="M 10.875 27.980469 L 21.640625 27.980469 L 21.640625 24.382812 L 3.699219 24.382812 L 3.699219 27.980469 L 10.875 27.980469 " fill-opacity="1" fill-rule="nonzero"/><path fill="rgb(13.729858%, 12.159729%, 12.548828%)" d="M 3.699219 60.378906 L 3.699219 63.976562 L 7.285156 63.976562 L 7.285156 60.378906 L 3.699219 60.378906 " fill-opacity="1" fill-rule="nonzero"/><path fill="rgb(13.729858%, 12.159729%, 12.548828%)" d="M 3.699219 31.582031 L 3.699219 35.179688 L 7.285156 35.179688 L 7.285156 31.582031 L 3.699219 31.582031 " fill-opacity="1" fill-rule="nonzero"/><path fill="rgb(13.729858%, 12.159729%, 12.548828%)" d="M 0.109375 27.980469 L 0.109375 31.582031 L 3.699219 31.582031 L 3.699219 27.980469 L 0.109375 27.980469 " fill-opacity="1" fill-rule="nonzero"/><path fill="rgb(88.62915%, 69.799805%, 6.669617%)" d="M 14.664062 11.78125 L 14.664062 8.183594 L 11.074219 8.183594 L 11.074219 11.78125 L 14.664062 11.78125 " fill-opacity="1" fill-rule="nonzero"/><path fill="rgb(88.62915%, 80.778503%, 5.099487%)" d="M 7.484375 15.378906 L 11.074219 15.378906 L 11.074219 11.78125 L 7.484375 11.78125 L 7.484375 15.378906 " fill-opacity="1" fill-rule="nonzero"/><path fill="rgb(89.408875%, 57.649231%, 8.239746%)" d="M 11.074219 11.78125 L 11.074219 8.183594 L 7.484375 8.183594 L 7.484375 11.78125 L 11.074219 11.78125 " fill-opacity="1" fill-rule="nonzero"/><g clip-path="url(#clip-2)"><path fill="rgb(88.62915%, 80.778503%, 5.099487%)" d="M 11.074219 4.582031 L 7.484375 4.582031 L 7.484375 8.183594 L 11.074219 8.183594 L 11.074219 4.582031 " fill-opacity="1" fill-rule="nonzero"/></g><path fill="rgb(88.62915%, 69.799805%, 6.669617%)" d="M 7.484375 8.183594 L 3.898438 8.183594 L 3.898438 11.78125 L 7.484375 11.78125 L 7.484375 8.183594 " fill-opacity="1" fill-rule="nonzero"/></svg>